<svg version="1.1"
	 id="svg2" xmlns:cc="http://creativecommons.org/ns#" xmlns:dc="http://purl.org/dc/elements/1.1/" xmlns:rdf="http://www.w3.org/1999/02/22-rdf-syntax-ns#"
	 xmlns="http://www.w3.org/2000/svg" xmlns:xlink="http://www.w3.org/1999/xlink" x="0px" y="0px" viewBox="0 0 1543.4 320"
	 style="enable-background:new 0 0 1543.4 320;" xml:space="preserve">
<g>
	<path class="st0" style="fill:#FFFFFF" d="M416.2,166.5c9.6-3.2,19.5-6.6,29.8-10.2v-36.9h-14.1c-2.1,9.9-4.6,19-7.6,27.2c-3.3-2.4-6.7-4.7-10.2-6.9
		c5.8-14.3,9.5-31.4,11.1-51.4l11.3,1.9c-0.7,6.5-1.6,12.8-2.7,18.8H446V73.8h11.7V109h15.5v10.5h-15.5v32.7
		c5.1-1.9,10.3-3.8,15.6-5.7c0.5,4.6,1.1,8.5,1.7,11.9c-5.2,1.9-10.9,4-17.3,6.4v62.2H446v-57.7c-8.3,3.1-17.5,6.6-27.5,10.5
		L416.2,166.5z M467.1,134.4c10.3-15.8,19.7-36.5,28.3-61.9l11.4,3.4c-3,8.3-5.9,16-8.9,23.1h67.8c-2.1,42-3.8,74.1-5.2,96.4
		c-1.1,17.4-9.5,26.1-25,26.1c-5.8,0-12.7-0.2-20.6-0.5c-0.5-3.9-1.3-8.3-2.2-13.3c9.1,1,16.3,1.6,21.6,1.6
		c8.4,0,13.1-4.8,13.9-14.4c1.9-22,3.5-50.3,5-84.8h-12c-2.7,26.6-7.1,47.5-13.2,62.8c-8.3,19.8-22.5,36.8-42.5,50.9
		c-2.3-3.2-4.9-6.4-8-9.5c19.5-13.8,33-29.5,40.5-47.3c6-14.6,9.9-33.6,11.6-56.9h-13.9c-2.8,19.9-7,35.9-12.6,48
		c-6.9,13.6-16.3,25.9-28.3,36.7c-2.6-3.3-5.3-6.4-8.1-9.2c11.9-10.3,20.7-21.1,26.4-32.5c5.6-11.6,9.3-25.9,11.1-43h-11.3
		c-5.3,11.8-10.6,21.9-15.9,30.2C474.5,138.6,471.2,136.6,467.1,134.4z"/>
	<path class="st0" style="fill:#FFFFFF" d="M575.9,192.2c4-0.6,7.9-1.3,11.9-2V95.4h-10.2V84.4h67.5v10.9h-11.7v86.9c4.7-0.9,9.5-1.8,14.2-2.7
		c0.2,4.3,0.6,7.9,1.1,10.9c-4.9,1-10.1,2-15.3,3v33H622v-30.7c-13.4,2.7-27.8,5.7-43.1,8.8L575.9,192.2z M599.2,118.2H622V95.4
		h-22.8V118.2z M599.2,151.6H622v-22.8h-22.8V151.6z M622,184.4v-22.1h-22.8v26.1C606.8,187,614.4,185.7,622,184.4z M638.8,146.1
		h36.1c0.4-7.6,0.6-17,0.5-28.3h-32.3v-11.6h42.2c4.7-7.5,10.8-18.5,18.4-33l12.2,5.8c-6.5,10.1-12.5,19.1-18,27.2h26.2v11.6h-36.6
		c0,11.3-0.2,20.7-0.5,28.3h42.4v11.6h-40.9c8,24.9,22.3,43.4,43,55.5c-3.8,3.8-7.1,7.7-10,11.7c-18.5-14-31.5-31.6-39.1-52.7
		c-5.7,22.3-18.4,40.4-38,54.2c-3.2-4.1-6.1-7.4-8.8-10.2c21.7-13.7,34.4-33.2,38.1-58.6h-35.2V146.1z M649.2,79.7l9.1-6.4
		c6.3,7.1,12.1,14.8,17.7,23.3l-10.2,7C661.3,96.5,655.8,88.5,649.2,79.7z"/>
	<path class="st0" style="fill:#FFFFFF" d="M760.7,115.1l9.2-4.8c6.2,9.8,12.4,19.9,18.5,30.2c5.1-10.9,9.4-21.7,13-32.5l10.6,3.9
		c-5.2,14-10.8,27.3-17,39.9c6,10.2,11.9,20.7,17.8,31.3l-10.6,5.6c-4.3-8.2-8.8-16.5-13.4-24.8c-6.4,12-13.3,23.4-20.7,34.1
		l-9.4-5.4v32.6h-11.7V82.2h133.1v125.3c0,11.1-6,16.7-18,16.7c-6.7,0-14.6-0.1-23.9-0.3c-0.5-3.3-1.3-7.4-2.2-12.2
		c8.8,0.7,16.2,1.1,22.3,1.1c6.7,0,10-2.9,10-8.6V93.5H758.8v98.3c9-13.2,16.8-26.3,23.7-39.5C775.6,140,768.3,127.6,760.7,115.1z
		 M812.7,122.6l9.1-5.3c5.2,8.4,10.6,17.4,16.2,26.8c6-11.9,11.1-23.7,15.2-35.2l10.6,4.1c-5.9,14.8-12.3,29-19.3,42.5
		c6.6,11.3,13.4,23.2,20.4,35.8l-10.5,5.9c-5.2-9.9-10.6-19.9-16.3-30c-6.5,11.6-13.3,22.6-20.6,33l-9.5-6.1
		c9-13,16.9-25.7,23.8-38.3C825.7,144.7,819.4,133.7,812.7,122.6z"/>
	<path class="st0" style="fill:#FFFFFF" d="M896.3,156.9c7.4-2,14.6-4.1,21.6-6.2v-35.7h-19.7v-11.3h19.7V74.6h11.6v29.2h18v11.3h-18v32.1
		c4.9-1.6,9.8-3.2,14.5-4.8c0.1,4.7,0.4,8.8,0.9,12.2c-5.4,1.7-10.5,3.4-15.5,5.1v48.2c0,11.3-5.1,16.9-15.2,17
		c-3.9,0.1-8.8,0.1-14.7-0.2c-0.4-4.3-1-8.6-1.9-13c6.3,0.6,10.7,0.9,13.3,0.9c4.6,0,6.9-2.8,6.9-8.3v-40.9
		c-7.1,2.4-13.8,4.7-20,6.9L896.3,156.9z M938.8,215.2c20.3-3,36.8-7.9,49.6-14.7c-9.7-4.4-20.2-9-31.3-13.8
		c4.5-5.8,8.6-11.6,12.4-17.3h-25.7V159h32.3c3.3-5.6,6.4-11.3,9.1-16.9l11.6,4.8c-2.5,4.2-5,8.2-7.4,12h60.1v10.5h-20.5
		c-4.1,11.5-10.2,21.1-18.3,29c13.3,5.5,26.2,11,38.7,16.5l-6.9,11.6c-11.7-6.2-25.5-13-41.4-20.3c-14,9.5-32.7,16.5-56.3,20.9
		C943.3,223.6,941.3,219.7,938.8,215.2z M944.3,129.3h60.9c6.6-9.2,12.5-17.8,17.6-25.8l11.7,6.4c-5.4,6.5-10.9,13-16.5,19.4h32.6
		v10.5H944.3V129.3z M950.4,91.3h44.1c-2.4-4.7-5-9.4-7.7-14.1l10.5-4.8c3.3,5.6,6.5,11.3,9.5,17l-4,1.9h44v10.5h-96.4V91.3z
		 M964.5,109.7l9.1-6.1c4.9,5.7,9.6,11.8,14.2,18.1l-10,6.7C973.8,122,969.4,115.8,964.5,109.7z M973.4,183.3
		c8.7,3.4,17.2,6.9,25.5,10.3c8.2-6.6,14-14.7,17.4-24.2h-33.7C979.5,174.3,976.4,178.9,973.4,183.3z"/>
	<path class="st0" style="fill:#FFFFFF" d="M1099.6,82.4l10.3-7.3c11.7,7.2,24.5,25.6,38.4,55.3c19.5,42.6,40.6,68.6,63.4,78l-10.9,13.8
		c-22.8-13.5-43.9-42.1-63.3-85.6c-1.6-3.5-3.1-6.8-4.6-10c-12.1,41.4-34.6,73.6-67.4,96.6c-2.8-4.2-6-8.1-9.5-11.7
		c33.8-21.3,56.6-55,68.3-101.1C1116.1,96.6,1107.9,87.3,1099.6,82.4z"/>
	<path class="st0" style="fill:#FFFFFF" d="M1218.1,157.7h69.2V92.4h-62.2v-12h138.1v12h-62.8v65.3h69.7v12h-69.7v57.5h-13.1v-57.5h-69.2V157.7z
		 M1233.1,109.6l9.8-6.9c11.7,13.6,21.7,26.8,30.2,39.5l-11.1,8.3C1253.9,137.5,1244.3,123.9,1233.1,109.6z M1312.6,142.1
		c11.5-12.1,21.8-25.4,30.9-40l11.7,7.5c-11.8,16.1-22.8,29.7-33,40.6L1312.6,142.1z"/>
	<path class="st0" style="fill:#FFFFFF" d="M1486.7,93.5c16.4,15.2,31.8,30.8,46.4,46.7l-11.1,9.2c-4.2-4.9-8.4-9.7-12.7-14.5c-46.8,2-82.5,3.7-107.2,5.1
		c-5.7,0.4-11.3,1.3-16.6,2.5l-5.2-13.4c4.8-1.8,9.1-4.2,13-7.3c17.8-14.6,34.1-31.4,48.9-50.5l11.7,7.2
		c-15.6,18.3-31.9,34.6-48.9,48.9c31.9-1,63.3-2.1,94.2-3.4c-7.1-7.8-14.4-15.3-21.7-22.7L1486.7,93.5z M1509.6,155.5v70.9h-12.8
		v-10.3h-85.9v10.3h-12.8v-70.9H1509.6z M1496.8,167.1h-85.9v37.8h85.9V167.1z"/>
</g>
<path class="st0" style="fill:#FFFFFF" d="M195.7,19.6C118.4,11.1,48.8,66.9,40.3,144.3C31.9,221.6,87.7,291.1,165,299.6c27.6,3,54.2-2.1,77.4-13.6
	c-29.3,19.6-65.3,29.4-103.1,25.3C54.3,302-7.1,225.6,2.2,140.5C11.5,55.5,88-5.9,173,3.4c35.9,3.9,67.5,19.8,91.4,43.2
	C245,32.1,221.6,22.5,195.7,19.6z"/>
<path class="st0" style="fill:#FFFFFF" d="M286.9,93c-44.8-48.1-120.1-50.7-168.2-5.9c-48.1,44.8-50.7,120.1-5.9,168.2c16,17.2,35.9,28.5,57,34
	c-29.5-3.6-58-17.2-79.9-40.6c-49.3-52.8-46.4-135.6,6.5-184.9c52.9-49.3,135.6-46.4,184.9,6.5c20.8,22.3,32.3,49.9,34.7,78.1
	C311.6,128.2,301.9,109,286.9,93z"/>
<path class="st0" style="fill:#FFFFFF" d="M299.4,197c1.9-54-40.3-99.3-94.3-101.2c-54-1.9-99.3,40.3-101.2,94.3c-0.7,19.3,4.3,37.4,13.4,52.9
	c-15.1-19.2-23.7-43.7-22.8-70.1c2.1-59.4,51.9-105.8,111.3-103.7c59.4,2.1,105.8,51.9,103.7,111.3c-0.9,25-10.2,47.7-25.2,65.5
	C293.3,231.8,298.8,215,299.4,197z"/>
<polygon class="st0" style="fill:#FFFFFF" points="227.5,200.8 225.3,204.1 135.5,172.7 "/>
<path class="st0" style="fill:#FFFFFF" d="M281.2,249.6c0,0,9.1-11.2,11.4-15.1c2.7-4.5,9.7-18.7,9.7-18.7l1.7,1.1l16.3,26.4l-2.9,10.9l-20,10.9
	L281.2,249.6z"/>
<path class="st0" style="fill:#FFFFFF" d="M307.5,252.7c-23.7,1.4-62.2-13.5-94.4-35.6c-15.7,23.7-26.7,40.9-26.7,40.9c37.7,25.3,68.1,34.8,93.2,31.5
	c10.3-1.4,13.9-5.6,13.9-5.6s12.9-12.2,21.3-22.4l3.5-3c0,0,3-1.9,3.8-2.8c3.5-3.7,4.9-7.4-2.1-20c-6.9-12.6-17.1-21.5-17.1-21.5
	l-1.2,2.3c0,0,13.4,18.7,15.3,26C318.8,249.4,313.7,252.6,307.5,252.7z"/>
<path class="st0" style="fill:#FFFFFF" d="M135.8,173.4C193.2,246.4,243,266.9,298,284.9c-2.6,3.1-4.3,5.2-4.3,5.2s-3.6,4.2-13.9,5.6
	c-24.9,3.3-55.1-6.1-92.5-31l-10.5,16.8L135.8,173.4z"/>
<path class="st0" style="fill:#FFFFFF" d="M135.5,172.7l0.2-0.4l89.9,31.3c0,0-11.7,18.9-11.9,19.2c39.7,27.3,89.7,44.7,108.7,32.4
	c-1.1,1.3-16.7,20.4-24.4,29.6C243,266.9,192.9,245.6,135.5,172.7z"/>
<path class="st0" style="fill:#FFFFFF" d="M135.5,172.7l0.3,0.8c0,0,47.3,62.6,63.9,63.9c0.4,0,0.3-0.4,0.3-0.4L135.5,172.7z"/>
</svg>
